<?xml version="1.0" encoding="UTF-8"?><svg xmlns="http://www.w3.org/2000/svg" viewBox="0 0 198.42 226.77"><defs><style>.d{fill:#27aae1;}.e{fill:#ef5ba1;}</style></defs><g id="a"/><g id="b"><g id="c"><g><path class="e" d="M197.1,136.95c-16.64,9.71-49.33,21.26-79.58,23.13-43.02,4.33-90.48-6.33-100.71-21.56-4.6-6.69,9.9-25.79,21.44-25.68,7.05,.07,58.84,19.23,148.92,11.17,7.85-.89,14.07,10.2,9.93,12.94Z"/><path class="d" d="M2.43,85.83c-.6,.4,41.99-18.41,88.55-22.2,37.99-4.48,81.23,.69,96.39,14.31,3.82,3.43,3.99,25.06-9.34,31.43-4.62,2.21-59.82-19.66-165.82-6.71-7.89,.81-9.62-3.48-10.96-7.42-1.28-3.77-2.43-7.13,1.19-9.42Z"/><path class="e" d="M18.34,53.78S7.36,17.9,14.84,7.36C21.28-1.7,44.75-.26,57.01,3.55c5.63,1.75,7.25,7.86,7.16,11.24-.33,11.86-1.23,24.9-2.25,31.87-1.05,7.19-5.37,9.36-8.86,10.56-8.04,2.79-13.75,3.51-21.09,4.5-9.9,1.33-12.82-5-13.64-7.94Z"/><path class="e" d="M18.34,221.82c7.48,7.03,45.11,7.75,46.63-5.69,1.21-10.67,.33-27.36-5.44-38.12-5.87-10.98-17.6-15.98-30.66-15.81-13.2,.18-18.02,52.61-10.54,59.63Z"/><path class="d" d="M153.48,2.39s23.13-4.95,33.96-.6c5.11,2.54,5.74,7.54,5.91,9,1.7,15.23-3.06,48.79-16.91,47.46-6.75-.64-15.54-1.98-20-3.9-5.11-2.19-7.45-5.87-8.33-9.08-3.12-11.34-10.75-38.96,5.37-42.89Z"/><path class="d" d="M189.55,220.45c-12.62,8.74-31.29,7.19-40.09,2.67-7.94-4.08-6.33-30.15-.08-48.23,3.25-9.4,11.1-14.27,26.99-15.26,15.04-.95,21.36,55.16,13.18,60.82Z"/></g></g></g></svg>