<?xml version="1.0" encoding="UTF-8"?><svg xmlns="http://www.w3.org/2000/svg" viewBox="0 0 429.94 61.23"><defs><style>.d{fill:#36a9e1;}.e{fill:#ea5197;}.f{fill:#6f6f6f;}</style></defs><g id="a"/><g id="b"><g id="c"><g><g><path class="e" d="M53.22,36.98c-4.49,2.62-13.32,5.74-21.49,6.25-11.61,1.17-24.43-1.71-27.19-5.82-1.24-1.81,2.67-6.96,5.79-6.93,1.9,.02,15.89,5.19,40.21,3.01,2.12-.24,3.8,2.75,2.68,3.49Z"/><path class="d" d="M.66,23.18c-.16,.11,11.34-4.97,23.91-5.99,10.26-1.21,21.93,.19,26.02,3.86,1.03,.93,1.08,6.76-2.52,8.49-1.25,.6-16.15-5.31-44.77-1.81-2.13,.22-2.6-.94-2.96-2-.34-1.02-.66-1.92,.32-2.54Z"/><path class="e" d="M4.95,14.52S1.99,4.83,4.01,1.99C5.74-.46,12.08-.07,15.39,.96c1.52,.47,1.96,2.12,1.93,3.04-.09,3.2-.33,6.72-.61,8.6-.28,1.94-1.45,2.53-2.39,2.85-2.17,.75-3.71,.95-5.7,1.21-2.67,.36-3.46-1.35-3.68-2.14Z"/><path class="e" d="M4.95,59.89c2.02,1.9,12.18,2.09,12.59-1.54,.33-2.88,.09-7.39-1.47-10.29-1.59-2.97-4.75-4.32-8.28-4.27-3.56,.05-4.87,14.2-2.85,16.1Z"/><path class="d" d="M41.44,.65s6.24-1.34,9.17-.16c1.38,.69,1.55,2.04,1.59,2.43,.46,4.11-.82,13.17-4.56,12.81-1.82-.17-4.2-.53-5.4-1.05-1.38-.59-2.01-1.59-2.25-2.45-.84-3.06-2.9-10.52,1.45-11.58Z"/><path class="d" d="M51.18,59.52c-3.41,2.36-8.45,1.94-10.83,.72-2.14-1.1-1.71-8.14-.02-13.02,.88-2.54,3-3.85,7.29-4.12,4.06-.26,5.77,14.89,3.56,16.42Z"/></g><g><polygon class="f" points="327.04 29.16 323.24 29.16 323.24 36.76 311.68 36.76 311.68 40.14 338.64 40.14 338.64 36.76 327.04 36.76 327.04 29.16"/><path class="f" d="M97.27,14.97h-3.9v18.48c-.76,.25-2.75,.64-5.19,.64h-4.33v-2.69c3.31-.84,5.73-3.77,5.7-7.23-.02-1.48-.48-2.85-1.27-4h2.57v-3.31h-6.92v-3.08h-4v3.08h-6.92v3.31h2.55c-.82,1.19-1.29,2.63-1.28,4.17,.04,3.41,2.46,6.25,5.72,7.07v2.68h-7.67v3.38h15.87c2.58,0,4.45-.47,5.19-.7v4.93h3.9v-14.1h4.43v-3.35h-4.43V14.97Zm-19.16,9.33c-.02-2.15,1.66-3.92,3.76-3.94,2.1-.02,3.82,1.71,3.84,3.86,.02,2.15-1.66,3.92-3.76,3.94-2.1,.02-3.82-1.7-3.84-3.86Z"/><rect class="f" x="154.92" y="14.94" width="3.87" height="26.77"/><path class="f" d="M184,19.52h-6.22c-1.43-2.29-3.77-3.77-6.72-3.77-5.01,0-8.29,4.27-8.29,9.54s3.27,9.54,8.29,9.54c3.01,0,5.39-1.55,6.81-3.92h6.13v10.8h3.9V14.94h-3.9v4.58Zm-12.94,11.94c-2.41,0-4.36-2.76-4.36-6.17s1.95-6.17,4.36-6.17,4.36,2.76,4.36,6.17-1.95,6.17-4.36,6.17Zm8.06-3.9c.14-.73,.22-1.49,.22-2.28,0-.84-.09-1.65-.25-2.42h4.9v4.7h-4.87Z"/><polygon class="f" points="267.96 26.61 264.15 26.61 264.15 30.3 252.44 30.3 252.44 33.65 279.68 33.65 279.68 30.3 267.96 30.3 267.96 26.61"/><path class="f" d="M254.99,25.37l1.46,2.92c3.66-1.05,7.15-2.63,9.61-5.15,2.42,2.43,6.04,4.13,9.62,5.15l1.46-2.92c-3.79-1.18-7.64-2.98-8.79-5.67h7.78v-3.38h-20.13v3.38h7.73c-1.22,2.52-5.08,4.49-8.74,5.67Z"/><path class="f" d="M273.23,36.18h-17.19v3.35h16.33v7.85h3.92v-8.4c0-1.72-1.11-2.8-3.06-2.8Z"/><polygon class="f" points="393.45 24.51 390.67 24.51 390.67 14.93 386.86 14.93 386.86 41.7 390.67 41.7 390.67 27.89 393.45 27.89 393.45 41.7 397.26 41.7 397.26 14.93 393.45 14.93 393.45 24.51"/><path class="f" d="M425.51,23.14V14.94h-3.9v13.41c-.72,.19-2.13,.4-4.82,.4h-10.28v-9.08h9.82v-3.35h-13.74v12.98c0,1.72,1.11,2.8,3.06,2.8h11.36c2.51,0,3.88-.22,4.6-.41v6.5h3.9v-11.71h4.43v-3.34h-4.43Z"/><polygon class="f" points="246.23 14.97 242.33 14.97 242.33 41.7 246.23 41.7 246.23 27.8 250.66 27.8 250.66 24.45 246.23 24.45 246.23 14.97"/><path class="f" d="M234.35,16.32h-11.11v3.38h10.29c0,4.66-3,10.24-11.63,13.07l1.34,3.41c8.8-2.89,14.05-8.98,14.05-17.01,0-2.21-1.35-2.85-2.94-2.85Z"/><path class="f" d="M144.06,19.83v-4.14h-4.03v4.14c0,3.78-1.11,9.14-7.37,13.41l1.95,2.94s4.95-3.22,7.44-7.97c2.49,4.76,7.44,7.97,7.44,7.97l1.95-2.94c-6.26-4.27-7.37-9.62-7.37-13.41Z"/><polygon class="f" points="213.26 20.19 207.22 20.19 207.22 23.57 213.26 23.57 213.26 32.42 217.13 32.42 217.13 14.94 213.26 14.94 213.26 20.19"/><path class="f" d="M207.55,31.54l1.6-3.02c-6.33-3.45-7.04-7.6-7.04-10.45v-2.37h-4.03v2.37c0,2.85-.71,7.01-7.04,10.45l1.6,3.02s4.79-2.17,7.46-6.16c2.66,3.98,7.46,6.16,7.46,6.16Z"/><path class="f" d="M208.57,32.59c-4.49,.05-8.1,3.39-8.06,7.48,.05,4.08,3.73,7.36,8.22,7.31,4.49-.05,8.1-3.39,8.06-7.48-.05-4.08-3.72-7.36-8.22-7.31Zm.13,11.42c-2.31,.02-4.2-1.76-4.23-3.98-.02-2.22,1.83-4.05,4.14-4.07,2.31-.02,4.2,1.76,4.23,3.98,.02,2.22-1.83,4.05-4.14,4.07Z"/><polygon class="f" points="125.37 20.19 119.33 20.19 119.33 23.57 125.37 23.57 125.37 32.42 129.24 32.42 129.24 14.94 125.37 14.94 125.37 20.19"/><path class="f" d="M119.66,31.54l1.6-3.02c-6.33-3.45-7.04-7.6-7.04-10.45v-2.37h-4.03v2.37c0,2.85-.71,7.01-7.04,10.45l1.6,3.02s4.79-2.17,7.46-6.16c2.66,3.98,7.46,6.16,7.46,6.16Z"/><path class="f" d="M120.68,32.59c-4.49,.05-8.1,3.39-8.06,7.48,.05,4.08,3.73,7.36,8.22,7.31,4.49-.05,8.1-3.39,8.06-7.48-.05-4.08-3.72-7.36-8.22-7.31Zm.13,11.42c-2.31,.02-4.2-1.76-4.23-3.98-.02-2.22,1.83-4.05,4.14-4.07,2.31-.02,4.2,1.76,4.23,3.98,.02,2.22-1.83,4.05-4.14,4.07Z"/><polygon class="f" points="303.7 22.01 297.66 22.01 297.66 25.39 303.7 25.39 303.7 32.42 307.57 32.42 307.57 14.94 303.7 14.94 303.7 22.01"/><path class="f" d="M297.83,31.86l1.77-3.02c-5.49-2.99-6.6-5.97-6.82-8.64h6.04v-3.35h-6.1v-3.08h-4.03v3.08h-6.11v3.35h6.05c-.22,2.67-1.34,5.65-6.82,8.64l1.77,3.02s4.54-2.16,7.13-6.11c2.59,3.96,7.13,6.11,7.13,6.11Z"/><path class="f" d="M299.02,32.59c-4.49,.05-8.1,3.39-8.06,7.48,.05,4.08,3.73,7.36,8.22,7.31,4.49-.05,8.1-3.39,8.06-7.48-.05-4.08-3.72-7.36-8.22-7.31Zm.13,11.42c-2.31,.02-4.2-1.76-4.23-3.98-.02-2.22,1.83-4.05,4.14-4.07,2.31-.02,4.2,1.76,4.23,3.98,.02,2.22-1.83,4.05-4.14,4.07Z"/><path class="f" d="M379.87,21.9v-2.24h5.29v-3.35h-14.61v3.35h5.29v2.24c0,1.29,.03,6.81-6.06,11.25l2.09,3.02s3.73-2.55,5.99-6.48c2.26,3.92,5.99,6.48,5.99,6.48l2.09-3.02c-6.1-4.44-6.06-9.96-6.06-11.25Z"/><path class="f" d="M325.16,22.17c3.39,4.39,10.74,6.55,10.74,6.55l1.3-3.04c-8.61-2.8-10.06-7.06-10.06-9.17v-1.58h-3.95v1.58c0,2.12-1.45,6.37-10.06,9.17l1.3,3.04s7.34-2.16,10.74-6.55Z"/><path class="f" d="M351.13,34.89h-3.93v9c0,1.72,1.11,2.8,3.06,2.8h15.39v-3.35h-14.53v-8.44Z"/><path class="f" d="M361.47,32.04v5.64h3.86V14.94h-3.86v2.56h-7.9v3.35h7.9v2.4h-7.9v3.35h7.9v2.1c-.5,.2-1.86,.53-5.26,.53h-10.28V15.69h-3.93v14.1c0,1.72,1.11,2.8,3.06,2.8h11.36c3.17,0,4.53-.35,5.04-.54Z"/><path class="f" d="M411.31,35.49h-3.93v8.4c0,1.72,1.11,2.8,3.06,2.8h15.4v-3.35h-14.53v-7.85Z"/></g></g></g></g></svg>